<?xml version="1.0" encoding="utf-8" ?><svg xmlns="http://www.w3.org/2000/svg" xmlns:xlink="http://www.w3.org/1999/xlink" width="1077" height="1077" viewBox="0 0 1077 1077"><path fill="#4E6CEF" transform="scale(3.47419 3.47419)" d="M196.414 223.118C178.315 235.808 161.12 239.929 139.35 238.899C82.3387 236.201 40.5356 185.564 50.7006 128.788C55.1081 104.044 69.2194 82.0876 89.8965 67.8002C124.397 43.9578 176.219 46.4823 206.192 75.9703C211.28 80.9767 215.95 85.5096 220.014 91.4504C234.502 112.314 239.929 138.153 235.057 163.082C233.16 173.157 229.732 183.113 224.883 192.191C223.458 194.858 221.413 197.194 220.052 199.549C222.6 204.321 225.857 208.837 228.516 213.556C231.034 218.024 234.331 222.442 236.558 227.005C237.982 225.996 238.466 225.663 239.661 224.437C240.637 223.435 244.513 218.264 245.344 217.733C247.166 215.271 251.278 209.271 254.278 208.73C257.651 208.463 258.883 211.507 260.032 214.159C262.025 218.761 263.798 223.49 265.655 228.152L275.543 252.841C279.654 263.125 284.032 273.303 288.038 283.627C288.848 285.715 289.196 288.643 287.487 290.464C284.542 293.328 280.359 288.191 278.726 286.303C272.642 279.366 266.598 272.396 260.593 265.391C256.86 261.028 251.346 254.251 247.364 250.448C242.349 253.561 235.683 266.425 230.027 269.74C225.351 272.48 221.498 263.976 219.527 260.853C213.687 251.625 207.919 242.351 202.225 233.032C201.168 231.293 196.918 224.515 196.414 223.118ZM147.374 216.775C186.918 214.386 217.004 180.338 214.509 140.8C212.014 101.263 177.885 71.2676 138.355 73.8685C98.9733 76.4596 69.1156 110.431 71.6016 149.82C74.0875 189.208 107.979 219.156 147.374 216.775Z"/><path fill="#4A64E0" transform="scale(3.47419 3.47419)" d="M245.344 217.733C247.166 215.271 251.278 209.271 254.278 208.73C253.218 210.074 246.531 217.258 245.344 217.733Z"/><path fill="#4E6CEF" transform="scale(3.47419 3.47419)" d="M139.881 88.3499C141.204 88.1268 143.918 88.2708 145.31 88.328C149.64 90.9716 149.87 96.2085 145.295 98.4887C143.645 99.3113 140.195 99.1225 138.226 99.3186C130.13 100.061 122.418 103.111 116.004 108.106C103.352 118.141 97.8175 129.198 97.0948 145.176C97.0106 147.037 96.7443 148.994 95.371 150.352C92.135 151.906 87.2617 151.573 86.9032 146.998C84.8455 120.731 103.417 96.624 128.614 90.1157C132.188 89.1927 136.212 88.7737 139.881 88.3499Z"/></svg>